PathFileType	3	(X/Y/Z)	D:\VICON_DB\Goncalves\Pilot01\09-03-2026\bw_sq_140_02.trc
DataRate	CameraRate	NumFrames	NumMarkers	Units	OrigDataRate	OrigDataStartFrame	OrigNumFrames
200.0	200.0	13	34	mm	200.0	616	703	
Frame#	Time	LASI			RASI			LPSI			RPSI			LTHI			LTHAP			LTHAD			LKNE			LKNM			LTIB			LTIAP			LTIAD			LANK			LMED			LHEE			LTOE			LFMH			LSMH			LVMH			RTHI			RTHAP			RTHAD			RKNE			RKNM			RTIB			RTIAP			RTIAD			RANK			RMED			RHEE			RTOE			RFMH			RSMH			RVMH			
		X1	Y1	Z1	X2	Y2	Z2	X3	Y3	Z3	X4	Y4	Z4	X5	Y5	Z5	X6	Y6	Z6	X7	Y7	Z7	X8	Y8	Z8	X9	Y9	Z9	X10	Y10	Z10	X11	Y11	Z11	X12	Y12	Z12	X13	Y13	Z13	X14	Y14	Z14	X15	Y15	Z15	X16	Y16	Z16	X17	Y17	Z17	X18	Y18	Z18	X19	Y19	Z19	X20	Y20	Z20	X21	Y21	Z21	X22	Y22	Z22	X23	Y23	Z23	X24	Y24	Z24	X25	Y25	Z25	X26	Y26	Z26	X27	Y27	Z27	X28	Y28	Z28	X29	Y29	Z29	X30	Y30	Z30	X31	Y31	Z31	X32	Y32	Z32	X33	Y33	Z33	X34	Y34	Z34	
616	3.075	62.76366	864.27716	-1090.1016	67.510918	865.42047	-1351.6338				267.01041	906.9754	-1249.6652	93.008095	678.32227	-1004.868	103.86166	747.427	-1017.7765	149.28748	624.71942	-972.48041	201.24144	470.0065	-956.20984				252.38931	289.45175	-893.55457	175.20372	351.27905	-938.87274	202.93074	262.36221	-885.73401	267.14847	79.65683	-847.55243				278.46146	57.501534	-912.2746	185.83752	73.052254	-821.70148	124.8104	44.567814	-814.67169				172.84735	24.948082	-749.37256	153.68988	621.95258	-1454.3577	91.989609	734.9931	-1407.832	82.081833	644.9024	-1424.217	205.81595	486.02377	-1460.6536				243.15977	307.39658	-1529.0476	179.95581	344.4953	-1489.042	185.83588	268.73685	-1517.1659	264.38251	64.28756	-1565.8578				274.70212	55.541569	-1514.9619	179.04231	71.096321	-1607.5817	121.4866	50.680294	-1612.4119				169.28465	19.165998	-1669.0859
617	3.08	62.980801	864.32404	-1090.1067	67.613747	865.43073	-1351.639				267.19238	906.99371	-1249.7294	93.286842	678.328	-1004.8802	104.11591	747.44373	-1017.782	149.55344	624.72345	-972.50024	201.48645	470.00385	-956.24823				252.55254	289.4361	-893.56836	175.38696	351.27753	-938.90613	203.08102	262.37137	-885.7605	267.19376	79.616158	-847.55267				278.48392	57.481148	-912.26129	185.85481	73.053238	-821.70392	124.81731	44.57106	-814.67389				172.84508	24.94643	-749.37262	153.79541	621.96442	-1454.3796	92.098259	735.00665	-1407.8247	82.198174	644.91656	-1424.2253	205.88422	486.02579	-1460.6708				243.18816	307.38687	-1529.0604	180.00098	344.49756	-1489.0341	185.8652	268.73648	-1517.1543	264.37857	64.282745	-1565.8579				274.711	55.534428	-1514.9668	179.04234	71.092056	-1607.556	121.48072	50.67778	-1612.3967				169.27885	19.178843	-1669.0785
618	3.085	63.20948	864.37646	-1090.1117	67.723434	865.43652	-1351.6453				267.38037	907.01794	-1249.7964	93.567879	678.33081	-1004.899	104.37627	747.46008	-1017.7877	149.81841	624.72461	-972.52368	201.73053	469.99652	-956.28271				252.71634	289.41818	-893.57623	175.57561	351.27362	-938.94147	203.23395	262.37674	-885.78839	267.24072	79.573723	-847.54907				278.50937	57.460018	-912.24481	185.8737	73.053764	-821.70441	124.82515	44.574318	-814.67603				172.84261	24.944307	-749.37219	153.90465	621.97455	-1454.3956	92.215431	735.02002	-1407.8131	82.318138	644.93213	-1424.228	205.95471	486.02496	-1460.6782				243.21974	307.3764	-1529.067	180.04735	344.50067	-1489.0233	185.89632	268.73593	-1517.1412	264.37448	64.27742	-1565.8562				274.71848	55.525387	-1514.9698	179.04228	71.087654	-1607.5293	121.47457	50.675098	-1612.3813				169.27263	19.19231	-1669.0706
619	3.09	63.449993	864.4342	-1090.1155	67.839394	865.43884	-1351.6505				267.57428	907.04681	-1249.8657	93.850349	678.33044	-1004.9238	104.64167	747.47552	-1017.7928	150.08182	624.7229	-972.55017	201.97342	469.98447	-956.31372				252.88042	289.39835	-893.57831	175.76959	351.26788	-938.97833	203.38844	262.37885	-885.81732	267.28894	79.529686	-847.5415				278.53751	57.438129	-912.2251	185.89412	73.053902	-821.70306	124.8339	44.577621	-814.67816				172.83984	24.941816	-749.37122	154.01414	621.98236	-1454.4055	92.338249	735.03259	-1407.7958	82.438675	644.94806	-1424.2238	206.02623	486.02097	-1460.676				243.25362	307.36533	-1529.0681	180.09431	344.50427	-1489.0098	185.9286	268.73468	-1517.1261	264.37036	64.271629	-1565.8535				274.72446	55.514572	-1514.9712	179.04227	71.082924	-1607.5016	121.46809	50.672386	-1612.3658				169.26605	19.206306	-1669.0625
620	3.095	63.702473	864.49652	-1090.1168	67.960991	865.43793	-1351.6531				267.77402	907.07886	-1249.9368	94.133682	678.32635	-1004.9543	104.91106	747.48969	-1017.7966	150.34337	624.71808	-972.5791	202.21521	469.96783	-956.34125				253.04478	289.37701	-893.57483	175.96877	351.26035	-939.01648	203.54367	262.37827	-885.84692	267.33817	79.484314	-847.52991				278.56818	57.415482	-912.20227	185.91595	73.05378	-821.70007	124.84355	44.581047	-814.68036				172.83676	24.939058	-749.37012	154.12094	621.9873	-1454.4094	92.463982	735.04358	-1407.7723	82.557236	644.9632	-1424.2108	206.09776	486.01334	-1460.6654				243.28906	307.35379	-1529.0641	180.14162	344.50818	-1488.993	185.96162	268.7323	-1517.1088	264.36615	64.265419	-1565.8495				274.72913	55.502014	-1514.9709	179.0425	71.077698	-1607.4733	121.46127	50.669785	-1612.3505				169.25919	19.22072	-1669.0538
621	3.1	63.966908	864.56268	-1090.1149	68.087677	865.43427	-1351.6519				267.97955	907.11261	-1250.0093	94.417351	678.3186	-1004.9894	105.18359	747.50238	-1017.7983	150.60315	624.71027	-972.60986	202.4563	469.94714	-956.36578				253.20972	289.35464	-893.56622	176.17288	351.25082	-939.05591	203.69916	262.37558	-885.87683	267.38806	79.437927	-847.51422				278.60147	57.392075	-912.17651	185.93918	73.053444	-821.69537	124.8541	44.584721	-814.68268				172.83339	24.936079	-749.36853	154.22264	621.98883	-1454.4075	92.590233	735.05237	-1407.7416	82.671776	644.97638	-1424.1877	206.16875	486.00192	-1460.6467				243.32581	307.34198	-1529.0554	180.18907	344.51221	-1488.9734	185.99529	268.72852	-1517.0895	264.36209	64.258781	-1565.845				274.7327	55.487679	-1514.9696	179.04314	71.071831	-1607.4441	121.45412	50.667412	-1612.3353				169.25211	19.235464	-1669.0447
622	3.105	64.243195	864.63196	-1090.1082	68.218887	865.42828	-1351.6453				268.19089	907.14655	-1250.0828	94.701012	678.30719	-1005.0278	105.4586	747.51337	-1017.7971	150.86139	624.69952	-972.64148	202.69733	469.92288	-956.38733				253.37563	289.3317	-893.55298	176.38167	351.2392	-939.09686	203.85501	262.37112	-885.90668	267.43854	79.390961	-847.49438				278.63748	57.367912	-912.14771	185.96373	73.052917	-821.68903	124.86559	44.588757	-814.68518				172.82976	24.932896	-749.36682	154.31749	621.98688	-1454.3993	92.714973	735.05798	-1407.7029	82.780815	644.98639	-1424.1539	206.23877	485.98666	-1460.6211				243.36382	307.32999	-1529.0431	180.23685	344.51627	-1488.9506	186.02971	268.72314	-1517.0677	264.35825	64.251717	-1565.8401				274.73547	55.471458	-1514.967	179.04443	71.065308	-1607.4143	121.44675	50.665367	-1612.3204				169.24483	19.250469	-1669.0353
623	3.11	64.531151	864.70349	-1090.0961	68.35424	865.42017	-1351.6322				268.4082	907.17926	-1250.1562	94.984512	678.29218	-1005.0682	105.7357	747.52216	-1017.7924	151.11861	624.68622	-972.67303	202.93912	469.89569	-956.40625				253.54326	289.30859	-893.5354	176.59508	351.22534	-939.1394	204.01181	262.36514	-885.93677	267.48926	79.343819	-847.47034				278.67627	57.343033	-912.11591	185.9897	73.052223	-821.68097	124.87806	44.593266	-814.68774				172.82605	24.929464	-749.36462	154.40427	621.98096	-1454.3856	92.836624	735.06012	-1407.6564	82.883484	644.99243	-1424.1084	206.30783	485.96771	-1460.5895				243.40337	307.31784	-1529.0273	180.285	344.52039	-1488.9254	186.06528	268.71603	-1517.0444	264.35495	64.244171	-1565.8352				274.73785	55.453197	-1514.9637	179.04659	71.058113	-1607.3842	121.43929	50.663704	-1612.3058				169.2373	19.265699	-1669.0255
624	3.115	64.830482	864.77649	-1090.0776	68.493401	865.41058	-1351.6119				268.63187	907.20917	-1250.2296	95.267906	678.2738	-1005.1092	106.01477	747.52881	-1017.7831	151.37546	624.67065	-972.70374	203.18263	469.86624	-956.42261				253.71342	289.28561	-893.51404	176.81325	351.20969	-939.18372	204.17053	262.35764	-885.9671	267.54013	79.296852	-847.44202				278.71799	57.31749	-912.08136	186.01718	73.051308	-821.67102	124.89156	44.598381	-814.69031				172.82248	24.925686	-749.36188	154.48235	621.97131	-1454.3662	92.954147	735.05817	-1407.6014	82.979431	644.99335	-1424.0508	206.37593	485.94553	-1460.5526				243.44479	307.30566	-1529.0089	180.33388	344.52457	-1488.8982	186.10243	268.70743	-1517.0192	264.35233	64.23616	-1565.8308				274.7402	55.432724	-1514.9595	179.04973	71.050415	-1607.354	121.43192	50.662498	-1612.2914				169.22955	19.281139	-1669.0156
625	3.12	65.140869	864.85028	-1090.0522	68.636139	865.39996	-1351.584				268.86227	907.23505	-1250.3019	95.551453	678.2525	-1005.1496	106.29588	747.53308	-1017.7693	151.63271	624.65314	-972.73273	203.42891	469.83511	-956.43689				253.88693	289.26297	-893.48956	177.03645	351.19296	-939.22925	204.33203	262.34885	-885.9975	267.591	79.250305	-847.40961				278.7626	57.291348	-912.04401	186.04628	73.05014	-821.65906	124.90607	44.604202	-814.69275				172.8192	24.921423	-749.35834	154.55161	621.95789	-1454.3412	93.066956	735.05212	-1407.5383	83.068764	644.98895	-1423.9812	206.44322	485.92056	-1460.5115				243.48849	307.29358	-1528.9882	180.38377	344.52859	-1488.869	186.14177	268.69739	-1516.9922	264.35068	64.227692	-1565.8273				274.74277	55.409889	-1514.9541	179.05394	71.042419	-1607.3241	121.4248	50.661797	-1612.277				169.22156	19.296824	-1669.0059
626	3.125	65.461761	864.92426	-1090.0193	68.782272	865.38879	-1351.548				269.10001	907.25555	-1250.3723	95.835556	678.22894	-1005.1879	106.5793	747.53516	-1017.7501	151.89122	624.63403	-972.75897	203.67888	469.80283	-956.4491				254.06441	289.24088	-893.46234	177.26501	351.17615	-939.27545	204.49707	262.33911	-886.02771	267.64178	79.204391	-847.37299				278.81015	57.264606	-912.00391	186.07701	73.048615	-821.64496	124.92163	44.610798	-814.69482				172.81642	24.916508	-749.354	154.61238	621.94104	-1454.3105	93.17495	735.04175	-1407.467	83.151878	644.979	-1423.8998	206.50983	485.89352	-1460.467				243.5347	307.28159	-1528.9657	180.43495	344.53229	-1488.8386	186.18369	268.68622	-1516.9642	264.35025	64.218803	-1565.8246				274.74588	55.384514	-1514.9475	179.0593	71.034325	-1607.2948	121.41811	50.661621	-1612.2626				169.21326	19.312819	-1668.9958
627	3.13	65.792557	864.99786	-1089.9781	68.931641	865.37775	-1351.5038				269.34564	907.26965	-1250.4399	96.12059	678.20374	-1005.2225	106.86545	747.53534	-1017.7255	152.15184	624.61365	-972.78198	203.93341	469.76984	-956.45941				254.24629	289.21933	-893.43323	177.49913	351.16034	-939.32135	204.66606	262.32889	-886.05725	267.69238	79.159195	-847.33258				278.86038	57.237202	-911.96136	186.10934	73.046593	-821.62854	124.93813	44.618206	-814.69629				172.81436	24.910778	-749.34845	154.66539	621.9209	-1454.2745	93.278442	735.02728	-1407.3876	83.229355	644.96368	-1423.8073	206.57574	485.86502	-1460.4203				243.58347	307.26978	-1528.9425	180.48775	344.53528	-1488.8071	186.22849	268.67416	-1516.9349	264.3512	64.209549	-1565.8235				274.7496	55.356468	-1514.9397	179.06596	71.026291	-1607.2661	121.412	50.661964	-1612.2478				169.20462	19.329189	-1668.986
628	3.135	66.1325	865.07062	-1089.9288	69.084145	865.36688	-1351.4515				269.59967	907.27649	-1250.5046	96.406815	678.1781	-1005.2523	107.15491	747.53424	-1017.6948	152.41544	624.59241	-972.80109	204.19321	469.7366	-956.46796				254.43271	289.19827	-893.40253	177.73857	351.14639	-939.36621	204.8391	262.31882	-886.08533	267.74268	79.114738	-847.28876				278.91321	57.208954	-911.91644	186.1431	73.043983	-821.60962	124.95552	44.626347	-814.69714				172.81317	24.904108	-749.34174	154.71173	621.89795	-1454.2329	93.37812	735.00903	-1407.3007	83.301888	644.94373	-1423.7053	206.64101	485.83575	-1460.3721				243.63466	307.25836	-1528.9185	180.5423	344.53714	-1488.7748	186.27615	268.6615	-1516.9052	264.35364	64.199936	-1565.8239				274.75394	55.325634	-1514.9301	179.07402	71.018417	-1607.2379	121.40659	50.662785	-1612.2327				169.19562	19.34597	-1668.9763
